<?xml version="1.0" standalone="no"?>
<!DOCTYPE svg PUBLIC "-//W3C//DTD SVG 20010904//EN"
 "http://www.w3.org/TR/2001/REC-SVG-20010904/DTD/svg10.dtd">
<svg version="1.0" xmlns="http://www.w3.org/2000/svg"
 width="120.000000pt" height="120.000000pt" viewBox="0 0 120.000000 120.000000"
 preserveAspectRatio="xMidYMid meet">

<g transform="translate(0.000000,120.000000) scale(0.100000,-0.100000)"
fill="#000000" stroke="none">
<path d="M480 1184 c-174 -37 -333 -160 -409 -316 -92 -188 -90 -366 5 -548
34 -65 117 -170 134 -170 21 0 231 123 240 140 17 31 12 100 -9 129 -11 15
-27 47 -37 72 -10 24 -23 53 -31 64 -15 22 -18 146 -4 161 5 5 11 53 13 107
l3 98 41 39 c51 48 107 64 200 58 85 -6 148 -37 177 -86 16 -27 20 -51 18
-116 -1 -59 4 -92 15 -115 24 -49 15 -126 -20 -157 -14 -14 -26 -30 -26 -37 0
-7 -16 -37 -35 -67 -20 -33 -35 -68 -35 -87 0 -66 12 -78 145 -146 l126 -64
55 61 c211 233 202 588 -21 812 -53 53 -92 82 -156 113 -136 67 -255 84 -389
55z"/>
</g>
</svg>
